<svg xmlns="http://www.w3.org/2000/svg" viewBox="0 0 150 86.8">
<!-- SVG created with Arrow, by QuiverAI (https://quiver.ai) -->
  <style type="text/css">.cls-0 {fill:#F15B25;}
.cls-1 {fill:#D25E3F;}
.cls-2 {fill:#080304;}
.cls-3 {fill:#020202;}
.cls-4 {fill:#010101;}
.cls-5 {fill:#AB634B;}</style>
  <path class="cls-0" d="m82.9 7h-16.4c-2.4 0-4.5 2-4.5 4.4v17.1c0 2.3 2 4.6 4.4 4.6h16.6c2.4 0 4.5-2 4.5-4.5v-17.2c0-2.4-2.1-4.4-4.6-4.4z"/>
  <path class="cls-1" d="m82.9 7h-16.4c-2.4 0-4.5 2-4.5 4.4v17.1c0 2.3 2 4.6 4.4 4.6h16.6c2.4 0 4.5-2 4.5-4.5v-17.2c0-2.4-2.1-4.4-4.6-4.4zm3.6 21c0 2.1-1.6 4-3.7 4h-16c-2.1 0-3.9-1.7-3.9-3.9v-16.2c0-2.1 1.7-3.8 3.8-3.8h16c2.1 0 3.8 1.7 3.8 3.8v16.1z"/>
  <path class="cls-2" d="m68.1 13.2v3.4h7.9l-7.9 6.5v3.5h12.5v-3.4h-7l7.1-6.4v-3.6z"/>
  <path class="cls-3" d="m0.4 42.8v2.5h20.1l-19.8 10.7 0.3 2.5h24.1v-2.3h-19.6l19.5-10.7v-2.7z"/>
  <path class="cls-4" d="m55.5 42.8h-18.5c-4 0-7.9 2.8-7.9 7.9 0 4.2 3.4 7.8 7.8 7.8h18.6v-2.3h-18.3c-2.7 0-5.7-2-5.7-5.5 0-2.9 2.5-5.4 5.5-5.4h18.5v-2.5z"/>
  <path class="cls-4" d="m59.4 42.8v15.7h25.7v-2.2h-23v-13.5z"/>
  <path class="cls-4" d="m89.1 58.5h3.4l11.7-13.9 13.2 13.9h3.2l-14.9-15.7h-3.1z"/>
  <path class="cls-4" d="m124.7 42.8v2.5h20.9c1 0 1.7 0.7 1.7 1.9s-0.8 1.9-1.6 1.9h-21.1v9.4h2.7v-6.9h18.4c2.2 0 3.8-1.7 3.8-4.2s-1.7-4.6-3.9-4.6h-20.9z"/>
  <path class="cls-5" d="m126 76h2.4v2.5h-2.4z"/>
  <path d="m25.4 70c0.6-0.1 1.3-0.2 2.2-0.2 1.5 0 2.5 0.3 3.2 0.9s1.1 1.6 1.1 2.8c0 1.3-0.4 2.3-1.1 3s-2 1.6-3.5 1.6c-0.8 0-1.4 0.2-1.9 0.1v-8.2zm1.1 7.4h1c2.1 0 3.3-1.2 3.3-3.3 0-1.8-1-3.2-3.2-3.2-0.5 0-0.9 0.1-1.1 0.1v6.4z"/>
  <path d="m36.9 78.3-0.1-0.7c-0.3 0.5-0.9 0.9-1.7 0.9-1.1 0-1.9-0.8-1.9-1.6 0-1.4 1.2-2.2 3.4-2.2v-0.1c0-0.5-0.1-1.3-1.2-1.3-0.5 0-1.1 0.2-1.5 0.4l-0.3-0.8c0.5-0.3 1.2-0.6 1.9-0.6 1.8 0 2.3 1.2 2.3 2.4v2.3c0 0.5 0 1 0.1 1.3h-1zm-0.2-2.9c-1.1 0-2.3 0.2-2.3 1.3 0 0.6 0.4 0.9 1 0.9 0.7 0 1.1-0.4 1.3-0.9 0-0.1 0.1-0.2 0.1-0.3v-1h-0.1z"/>
  <path d="m41 70.6v1.6h1.5v0.9h-1.5v3.1c0 0.7 0.2 1.1 0.8 1.2h0.6l0.1 0.9c-0.2 0.1-0.5 0.2-0.9 0.2-0.5 0-0.9-0.2-1.2-0.5s-0.4-0.8-0.4-1.5v-3.3h-1v-0.9h0.8v-1.3l1.2-0.4z"/>
  <path d="m47.3 78.3-0.1-0.7c-0.3 0.5-0.9 0.9-1.7 0.9-1.1 0-1.9-0.8-1.9-1.6 0-1.4 1.2-2.2 3.4-2.2v-0.1c0-0.5-0.1-1.3-1.2-1.3-0.5 0-1.1 0.2-1.5 0.4l-0.3-0.8c0.5-0.3 1.2-0.6 1.9-0.6 1.8 0 2.3 1.2 2.4 2.4v2.3c0 0.5 0 1 0.1 1.3h-1.1zm-0.2-2.9c-1.1 0-2.3 0.2-2.3 1.3 0 0.6 0.4 0.9 1 0.9 0.7 0 1.1-0.4 1.3-0.9 0-0.1 0.1-0.2 0.1-0.3v-1h-0.1z"/>
  <path d="m54.9 70.6v1.7h1.5v0.9h-1.5v3.2c0 0.7 0.2 1.1 0.8 1.1h0.6l0.1 0.9c-0.2 0.1-0.5 0.1-0.9 0.1-0.5 0-0.9-0.2-1.2-0.5s-0.4-0.8-0.4-1.5v-3.3h-0.8v-0.9h0.8v-1.4l1-0.3z"/>
  <path d="m58.4 75.6c0 1.4 0.9 1.9 1.9 1.9 0.7 0 1.2-0.1 1.6-0.3l0.2 0.8c-0.4 0.2-1 0.4-1.9 0.4-1.7 0-2.8-1.1-2.8-2.9 0-1.7 1-3.2 2.7-3.2 1.9 0 2.4 1.7 2.4 2.7v0.5l-4.1 0.1zm2.9-0.8c0-0.6-0.3-1.6-1.4-1.6-1 0-1.4 0.9-1.5 1.6h2.9z"/>
  <path d="m64.1 69.5h1.1v8.8h-1z"/>
  <path d="m67.1 69.5h1.1l0.1 8.8h-1.1z"/>
  <path d="m70.1 77.2c0.3 0.2 0.9 0.4 1.4 0.4 0.7 0 1.1-0.4 1.1-0.8 0-0.5-0.3-0.7-1-1-1-0.4-1.5-0.9-1.5-1.6 0-1 0.7-1.9 2-1.9 0.6 0 1.1 0.2 1.4 0.3l-0.2 0.9c-0.2-0.1-0.6-0.3-1.2-0.3s-0.9 0.3-0.9 0.8 0.3 0.7 1.1 1c1 0.4 1.4 0.9 1.4 1.7 0 1-0.8 1.8-2.1 1.8-0.6 0-1.2-0.1-1.6-0.4l0.1-0.9z"/>
  <path d="m79.5 70.6v1.6h1.4v0.9h-1.4v3.2c0 0.7 0.2 1.1 0.8 1.1h0.6v0.9c-0.2 0.1-0.5 0.2-0.9 0.2-0.5 0-0.9-0.2-1.2-0.5s-0.4-0.8-0.4-1.5v-3.3h-0.7v-0.9h0.8l0.1-1.6 0.9-0.1z"/>
  <path d="m82.5 69.5h1.1v3.6c0.2-0.3 0.4-0.5 0.7-0.7s0.7-0.3 1.1-0.3c0.8 0 2.1 0.5 2.2 2.4v3.8h-1.1v-3.5c0-0.9-0.3-1.6-1.3-1.6-0.6 0-1.1 0.4-1.3 0.9-0.1 0.1-0.1 0.3-0.1 0.5v3.7h-1.3v-8.8z"/>
  <path d="m90.4 75.6c0 1.4 0.9 2 1.9 2 0.7 0 1.2-0.1 1.6-0.3l0.1 0.8c-0.4 0.2-1 0.4-1.9 0.4-1.7 0-2.8-1.2-2.8-2.9s1-3.3 2.7-3.3c1.9 0 2.4 1.7 2.4 2.8v0.5h-4zm2.9-0.8c0-0.6-0.3-1.6-1.3-1.6s-1.4 0.9-1.6 1.6h2.9z"/>
  <path d="m99 77.2c0.3 0.2 0.9 0.4 1.4 0.4 0.7 0 1.1-0.4 1.1-0.8 0-0.5-0.3-0.8-1-1-1-0.4-1.5-0.9-1.5-1.6 0-1 0.7-1.9 2-1.9 0.6 0 1.1 0.2 1.4 0.3l-0.2 0.9c-0.2-0.1-0.6-0.3-1.2-0.3s-0.9 0.3-0.9 0.8 0.3 0.7 1.1 0.9c1 0.4 1.4 0.9 1.4 1.7 0 1-0.8 1.9-2.1 1.9-0.6 0-1.2-0.2-1.6-0.4l0.1-0.9z"/>
  <path d="m105.7 70.6v1.6h1.5v1h-1.5v3.1c0 0.7 0.2 1.1 0.8 1.2h0.6l0.1 0.8c-0.2 0.1-0.5 0.2-0.9 0.2-0.5 0-0.9-0.2-1.2-0.5s-0.4-0.8-0.5-1.5v-3.3h-0.8v-0.9h0.8l0.1-1.6 1-0.1z"/>
  <path d="m114 75.4c0 2.1-1.4 3.1-2.7 3.1-1.5 0-2.9-1.2-3-3 0-1.9 1.3-3.2 2.8-3.2 1.7 0 2.9 1.2 2.9 3.1zm-4.6 0c0 1.2 0.7 2.2 1.7 2.2s1.7-0.9 1.9-2.2c0-0.9-0.5-2.2-1.7-2.2-1.2 0.1-1.9 1.2-1.9 2.2z"/>
  <path d="m115.6 74.2v-1.9h1v1.1c0.3-0.8 0.9-1.2 1.6-1.2h0.3v1.1h-0.4c-0.7 0-1.2 0.5-1.4 1.2v0.5 3.4h-1.1v-4.2z"/>
  <path d="m120.6 72.3 1.2 3.3c0.1 0.4 0.3 0.8 0.4 1.1 0.1-0.3 0.2-0.7 0.3-1.1l1.1-3.2h1.1l-1.4 4c-0.8 2-1.3 3-2 3.6-0.5 0.5-1 0.7-1.3 0.8l-0.3-0.9c0.3-0.1 0.6-0.3 0.9-0.6 0.3-0.2 0.7-0.7 0.9-1.2 0-0.1 0.1-0.2 0.1-0.3s0-0.1-0.1-0.3l-2.1-5.2h1.2z"/>
</svg>